<?xml version="1.0" standalone="no"?>
<!DOCTYPE svg PUBLIC "-//W3C//DTD SVG 20010904//EN"
 "http://www.w3.org/TR/2001/REC-SVG-20010904/DTD/svg10.dtd">
<svg version="1.0" xmlns="http://www.w3.org/2000/svg"
 width="466.000000pt" height="466.000000pt" viewBox="0 0 466.000000 466.000000"
 preserveAspectRatio="xMidYMid meet">
<metadata>
Created by potrace 1.14, written by Peter Selinger 2001-2017
</metadata>
<g transform="translate(0.000000,466.000000) scale(0.100000,-0.100000)"
fill="#000000" stroke="none">
<path d="M390 4643 c-23 -9 -51 -35 -66 -64 -14 -28 -26 -151 -53 -532 -5 -65
-11 -120 -14 -123 -3 -3 -1 -19 3 -35 5 -16 5 -31 1 -34 -8 -4 -24 -196 -21
-250 1 -16 1 -34 1 -40 -1 -5 -6 -41 -11 -80 -5 -38 -12 -227 -15 -420 -4
-212 -12 -388 -20 -445 -16 -108 -24 -219 -28 -367 -1 -57 -4 -103 -7 -103 -3
0 -4 -26 -2 -57 1 -32 3 -64 2 -70 0 -7 0 -20 0 -28 0 -8 0 -22 0 -30 0 -8 0
-22 0 -30 0 -24 0 -48 1 -80 0 -40 0 -90 -1 -148 -1 -26 2 -52 5 -57 3 -6 3
-10 -2 -10 -4 0 -9 -53 -11 -118 -1 -64 -7 -151 -12 -192 -11 -87 -23 -299
-20 -350 3 -48 3 -53 0 -65 -1 -5 -2 -35 -1 -66 1 -58 16 -85 56 -106 22 -12
196 -43 235 -43 26 1 317 -31 454 -49 43 -6 135 -13 205 -17 69 -3 133 -8 141
-11 15 -5 49 -6 120 -2 19 1 53 -3 76 -10 35 -9 42 -16 52 -50 7 -21 12 -90
12 -154 0 -63 7 -152 16 -198 15 -78 14 -111 -2 -182 l-6 -27 787 0 788 0 -7
108 c-4 59 -13 139 -21 177 -21 99 -20 113 11 121 22 6 137 -6 199 -19 11 -2
47 -7 80 -11 33 -4 83 -11 110 -16 28 -5 70 -11 95 -14 25 -3 128 -17 230 -31
223 -30 299 -32 329 -7 24 18 40 74 41 134 0 20 5 40 10 43 6 4 8 10 5 15 -5
8 9 127 40 345 8 61 22 160 30 220 8 61 21 157 29 215 9 58 22 156 31 218 8
61 22 163 31 225 8 61 17 132 19 157 3 25 11 90 19 146 8 55 18 136 21 179 3
43 8 81 10 84 1 3 8 58 14 121 13 131 32 262 67 467 13 78 24 156 24 173 0 16
4 30 10 30 6 0 6 9 1 23 -5 13 -6 30 -1 37 5 7 4 24 -1 37 -5 12 -5 23 0 23 9
0 35 289 27 298 -3 3 -2 10 4 16 5 7 16 70 25 141 9 72 21 134 25 139 4 4 4
21 0 36 -4 15 -4 32 1 37 5 5 11 53 15 108 10 152 -3 162 -234 190 -67 9 -127
13 -132 10 -6 -4 -10 -2 -10 3 0 5 -37 13 -82 17 -45 3 -117 12 -160 19 -47 8
-78 9 -78 3 0 -6 -5 -6 -12 0 -7 6 -69 15 -138 22 -69 6 -145 14 -170 17 -25
3 -54 4 -65 4 -11 -1 -24 -1 -30 -1 -5 0 -85 9 -177 20 -92 12 -171 20 -175
20 -4 -1 -15 0 -23 3 -8 3 -98 16 -200 28 -102 12 -210 26 -241 31 -30 5 -88
11 -127 14 -40 2 -75 6 -79 8 -5 3 -57 10 -118 16 -60 7 -123 14 -140 16 -31
5 -52 7 -405 50 -249 31 -267 33 -305 40 -93 16 -253 47 -275 52 -14 4 -29 5
-33 4 -7 -1 -274 35 -397 54 -19 3 -48 7 -65 9 -16 2 -68 9 -115 15 -89 12
-175 13 -200 4z"/>
</g>
</svg>
